<?xml version="1.0" encoding="iso-8859-1"?>
<!-- Generator: Adobe Illustrator 19.0.0, SVG Export Plug-In . SVG Version: 6.00 Build 0)  -->
<svg version="1.1" id="Capa_1" xmlns="http://www.w3.org/2000/svg" xmlns:xlink="http://www.w3.org/1999/xlink" x="0px" y="0px"
	 viewBox="0 0 512 512" style="enable-background:new 0 0 512 512;" xml:space="preserve">
<g>
	<g>
		<path style="fill:#F3D55B;" d="M436.966,247.172c-2.341,0.001-4.587-0.929-6.243-2.585c-1.656-1.656-2.585-3.901-2.585-6.243
			V52.966c0-4.875,3.952-8.828,8.828-8.828s8.828,3.952,8.828,8.828v185.379c0.001,2.341-0.929,4.587-2.585,6.243
			C441.553,246.243,439.307,247.173,436.966,247.172z"/>
		<path style="fill:#E4C05C;" d="M375.172,238.345h79.448c14.626,0,26.483,11.857,26.483,26.483l0,0
			c0,14.626-11.857,26.483-26.483,26.483h-79.448V238.345z"/>
		<path style="fill:#B19046;" d="M357.517,203.034H384c9.751,0,17.655,7.904,17.655,17.655v88.276
			c0,9.751-7.905,17.655-17.655,17.655h-26.483V203.034z"/>
		<path style="fill:#F3D55B;" d="M366.345,105.931V512H30.897V105.931c-0.008-28.097,11.15-55.046,31.018-74.913
			S108.731-0.008,136.828,0h123.586c28.097-0.008,55.046,11.15,74.913,31.018S366.353,77.834,366.345,105.931z"/>
		<path style="fill:#F5EFCA;" d="M331.034,105.931v17.655H66.207v-17.655c0-39.003,31.618-70.621,70.621-70.621h123.586
			C299.417,35.31,331.034,66.928,331.034,105.931z"/>
		<rect x="30.897" y="158.897" style="fill:#E4C05C;" width="335.448" height="211.862"/>
		<circle style="fill:#B19046;" cx="436.966" cy="26.483" r="26.483"/>
		<path style="fill:#F5EFCA;" d="M83.862,194.207h52.966c9.751,0,17.655,7.904,17.655,17.655v105.931
			c0,9.751-7.904,17.655-17.655,17.655H83.862c-9.751,0-17.655-7.904-17.655-17.655V211.862
			C66.207,202.111,74.111,194.207,83.862,194.207z"/>
		<path style="fill:#F9EAB0;" d="M172.138,194.207h52.966c9.751,0,17.655,7.904,17.655,17.655v105.931
			c0,9.751-7.904,17.655-17.655,17.655h-52.966c-9.751,0-17.655-7.904-17.655-17.655V211.862
			C154.483,202.111,162.387,194.207,172.138,194.207z"/>
		<path style="fill:#F5EFCA;" d="M260.414,194.207h52.966c9.751,0,17.655,7.904,17.655,17.655v105.931
			c0,9.751-7.905,17.655-17.655,17.655h-52.966c-9.751,0-17.655-7.904-17.655-17.655V211.862
			C242.759,202.111,250.663,194.207,260.414,194.207z"/>
		<g>
			<path style="fill:#D75E72;" d="M101.517,300.138c-2.341,0.001-4.587-0.929-6.243-2.585c-1.656-1.656-2.585-3.901-2.585-6.243
				c2.065-14.508,7.556-28.316,16.017-40.28c-6.901-0.299-13.68-1.925-19.966-4.789c-4.359-2.173-6.134-7.466-3.968-11.828
				c2.166-4.362,7.456-6.146,11.821-3.987c8.742,3.867,18.709,3.875,27.457,0.022c3.661-1.83,8.1-0.903,10.722,2.24
				c2.623,3.142,2.741,7.675,0.286,10.95c-10.259,13.703-24.715,37.547-24.715,47.672c0.001,2.341-0.929,4.587-2.585,6.243
				C106.104,299.209,103.859,300.139,101.517,300.138z"/>
			<path style="fill:#D75E72;" d="M189.793,300.138c-2.341,0.001-4.587-0.929-6.243-2.585c-1.656-1.656-2.585-3.901-2.585-6.243
				c2.065-14.508,7.556-28.316,16.017-40.28c-6.901-0.299-13.68-1.925-19.966-4.789c-4.359-2.173-6.134-7.466-3.968-11.828
				c2.166-4.362,7.456-6.146,11.821-3.987c8.742,3.868,18.709,3.876,27.457,0.022c3.661-1.83,8.1-0.903,10.722,2.24
				c2.623,3.142,2.741,7.675,0.286,10.95c-10.259,13.703-24.715,37.547-24.715,47.672c0.001,2.341-0.929,4.587-2.585,6.243
				C194.38,299.209,192.135,300.139,189.793,300.138z"/>
			<path style="fill:#D75E72;" d="M278.069,300.138c-2.341,0.001-4.587-0.929-6.243-2.585c-1.656-1.656-2.585-3.901-2.585-6.243
				c2.065-14.508,7.556-28.316,16.017-40.28c-6.901-0.299-13.68-1.925-19.966-4.789c-4.358-2.173-6.134-7.466-3.968-11.828
				c2.166-4.362,7.456-6.146,11.821-3.987c8.742,3.868,18.709,3.876,27.457,0.022c3.661-1.83,8.1-0.903,10.722,2.24
				c2.623,3.142,2.741,7.675,0.286,10.95c-10.259,13.703-24.715,37.547-24.715,47.672c0.001,2.341-0.929,4.587-2.585,6.243
				C282.656,299.209,280.41,300.139,278.069,300.138L278.069,300.138z"/>
		</g>
		<path style="fill:#F5EFCA;" d="M278.069,406.069h35.31c9.751,0,17.655,7.905,17.655,17.655v35.31
			c0,9.751-7.905,17.655-17.655,17.655h-35.31c-9.751,0-17.655-7.905-17.655-17.655v-35.31
			C260.414,413.973,268.318,406.069,278.069,406.069z"/>
		<path style="fill:#B19046;" d="M295.724,459.034c-2.341,0.001-4.587-0.929-6.243-2.585c-1.656-1.656-2.585-3.901-2.585-6.243
			v-17.655c0-4.875,3.952-8.828,8.828-8.828s8.828,3.952,8.828,8.828v17.655c0.001,2.341-0.929,4.587-2.585,6.243
			C300.311,458.105,298.066,459.035,295.724,459.034L295.724,459.034z"/>
	</g>
	<path style="fill:#F5EFCA;" d="M225.103,414.897v26.483c0.027,2.981-0.359,5.952-1.148,8.828
		c-4,15.596-18.062,26.497-34.163,26.483h-88.276c-16.101,0.014-30.163-10.887-34.163-26.483c-0.788-2.875-1.174-5.846-1.148-8.828
		v-26.483c0.014-4.869,3.958-8.813,8.828-8.828h141.241C221.145,406.083,225.089,410.027,225.103,414.897L225.103,414.897z"/>
	<path style="fill:#E4C05C;" d="M225.103,432.552v8.828c0.027,2.981-0.359,5.952-1.148,8.828H67.354
		c-0.788-2.875-1.174-5.846-1.148-8.828v-8.828H225.103z"/>
</g>
<g>
</g>
<g>
</g>
<g>
</g>
<g>
</g>
<g>
</g>
<g>
</g>
<g>
</g>
<g>
</g>
<g>
</g>
<g>
</g>
<g>
</g>
<g>
</g>
<g>
</g>
<g>
</g>
<g>
</g>
</svg>
